<?xml version="1.0" encoding="UTF-8" standalone="no"?><!DOCTYPE svg PUBLIC "-//W3C//DTD SVG 1.1//EN" "http://www.w3.org/Graphics/SVG/1.1/DTD/svg11.dtd"><svg width="100%" height="100%" viewBox="0 0 800 500" version="1.1" xmlns="http://www.w3.org/2000/svg" xmlns:xlink="http://www.w3.org/1999/xlink" xml:space="preserve" xmlns:serif="http://www.serif.com/" style="fill-rule:evenodd;clip-rule:evenodd;stroke-linejoin:round;stroke-miterlimit:2;"><g><g><path d="M132.471,354.648c0.252,0.72 0.216,1.413 -0.108,2.08c-0.324,0.666 -0.846,1.107 -1.566,1.323c-0.72,0.252 -1.414,0.216 -2.08,-0.108c-0.666,-0.324 -1.107,-0.846 -1.323,-1.567l-3.889,-11.666l-19.553,-0l-3.889,11.666c-0.216,0.721 -0.657,1.243 -1.323,1.567c-0.666,0.324 -1.36,0.36 -2.08,0.108c-0.72,-0.216 -1.242,-0.657 -1.566,-1.323c-0.324,-0.667 -0.36,-1.36 -0.108,-2.08l16.204,-48.612c0.18,-0.54 0.495,-0.981 0.945,-1.323c0.45,-0.343 0.981,-0.514 1.593,-0.514c0.577,0 1.099,0.171 1.567,0.514c0.468,0.342 0.792,0.783 0.972,1.323l16.204,48.612Zm-10.803,-15.34l-7.94,-23.874l-7.94,23.874l15.88,0Z" style="fill-rule:nonzero;"/><path d="M167.742,320.403c0.756,0 1.395,0.262 1.917,0.784c0.523,0.522 0.784,1.161 0.784,1.917l-0,32.408c-0,0.756 -0.261,1.396 -0.784,1.918c-0.522,0.522 -1.161,0.783 -1.917,0.783l-13.503,-0c-1.477,-0 -2.872,-0.288 -4.186,-0.864c-1.315,-0.576 -2.458,-1.351 -3.43,-2.323c-0.973,-0.972 -1.747,-2.115 -2.323,-3.43c-0.576,-1.314 -0.864,-2.709 -0.864,-4.186l-0,-24.306c-0,-0.756 0.261,-1.395 0.783,-1.917c0.522,-0.522 1.161,-0.784 1.918,-0.784c0.756,0 1.395,0.262 1.917,0.784c0.522,0.522 0.783,1.161 0.783,1.917l0,24.306c0,1.513 0.522,2.791 1.567,3.835c1.044,1.044 2.322,1.567 3.835,1.567l10.802,-0l0,-29.708c0,-0.756 0.261,-1.395 0.783,-1.917c0.523,-0.522 1.162,-0.784 1.918,-0.784Z" style="fill-rule:nonzero;"/><path d="M200.15,320.403c0.756,0 1.395,0.262 1.918,0.784c0.522,0.522 0.783,1.161 0.783,1.917c-0,0.756 -0.261,1.396 -0.783,1.918c-0.523,0.522 -1.162,0.783 -1.918,0.783l-8.102,-0l0,29.707c0,0.756 -0.261,1.396 -0.783,1.918c-0.522,0.522 -1.161,0.783 -1.918,0.783c-0.756,-0 -1.395,-0.261 -1.917,-0.783c-0.522,-0.522 -0.783,-1.162 -0.783,-1.918l-0,-29.707l-2.701,-0c-0.756,-0 -1.395,-0.261 -1.917,-0.783c-0.523,-0.522 -0.784,-1.162 -0.784,-1.918c0,-0.756 0.261,-1.395 0.784,-1.917c0.522,-0.522 1.161,-0.784 1.917,-0.784l2.701,0l-0,-13.503c-0,-0.756 0.261,-1.395 0.783,-1.917c0.522,-0.522 1.161,-0.784 1.917,-0.784c0.757,0 1.396,0.262 1.918,0.784c0.522,0.522 0.783,1.161 0.783,1.917l0,13.503l8.102,0Z" style="fill-rule:nonzero;"/><path d="M240.66,344.71c0,1.836 -0.342,3.573 -1.026,5.212c-0.684,1.638 -1.657,3.088 -2.917,4.348c-1.26,1.26 -2.709,2.233 -4.348,2.917c-1.638,0.684 -3.376,1.026 -5.212,1.026c-1.837,-0 -3.574,-0.342 -5.213,-1.026c-1.638,-0.684 -3.087,-1.657 -4.348,-2.917c-1.26,-1.26 -2.232,-2.71 -2.916,-4.348c-0.685,-1.639 -1.027,-3.376 -1.027,-5.212l0,-10.803c0,-1.837 0.342,-3.574 1.027,-5.212c0.684,-1.639 1.656,-3.088 2.916,-4.349c1.261,-1.26 2.71,-2.232 4.348,-2.916c1.639,-0.684 3.376,-1.027 5.213,-1.027c1.836,0 3.574,0.343 5.212,1.027c1.639,0.684 3.088,1.656 4.348,2.916c1.26,1.261 2.233,2.71 2.917,4.349c0.684,1.638 1.026,3.375 1.026,5.212l0,10.803Zm-5.401,-10.803c-0,-1.116 -0.216,-2.17 -0.648,-3.16c-0.432,-0.99 -1.009,-1.845 -1.729,-2.566c-0.72,-0.72 -1.575,-1.296 -2.565,-1.728c-0.991,-0.432 -2.044,-0.648 -3.16,-0.648c-1.116,-0 -2.17,0.216 -3.16,0.648c-0.99,0.432 -1.845,1.008 -2.566,1.728c-0.72,0.721 -1.296,1.576 -1.728,2.566c-0.432,0.99 -0.648,2.044 -0.648,3.16l-0,10.803c-0,1.116 0.216,2.169 0.648,3.159c0.432,0.991 1.008,1.846 1.728,2.566c0.721,0.72 1.576,1.296 2.566,1.728c0.99,0.433 2.044,0.649 3.16,0.649c1.116,-0 2.169,-0.216 3.16,-0.649c0.99,-0.432 1.845,-1.008 2.565,-1.728c0.72,-0.72 1.297,-1.575 1.729,-2.566c0.432,-0.99 0.648,-2.043 0.648,-3.159l-0,-10.803Z" style="fill-rule:nonzero;"/><path d="M278.47,320.403c1.476,0 2.871,0.289 4.186,0.865c1.314,0.576 2.457,1.35 3.43,2.322c0.972,0.973 1.746,2.116 2.322,3.43c0.576,1.314 0.864,2.71 0.864,4.186l0,24.306c0,0.756 -0.261,1.396 -0.783,1.918c-0.522,0.522 -1.161,0.783 -1.917,0.783c-0.757,-0 -1.396,-0.261 -1.918,-0.783c-0.522,-0.522 -0.783,-1.162 -0.783,-1.918l-0,-24.306c-0,-1.512 -0.522,-2.791 -1.566,-3.835c-1.045,-1.044 -2.323,-1.566 -3.835,-1.566l-5.402,-0l0,29.707c0,0.756 -0.261,1.396 -0.783,1.918c-0.522,0.522 -1.161,0.783 -1.917,0.783c-0.757,-0 -1.396,-0.261 -1.918,-0.783c-0.522,-0.522 -0.783,-1.162 -0.783,-1.918l-0,-29.707l-10.803,-0l0,29.707c0,0.756 -0.261,1.396 -0.783,1.918c-0.522,0.522 -1.161,0.783 -1.917,0.783c-0.757,-0 -1.396,-0.261 -1.918,-0.783c-0.522,-0.522 -0.783,-1.162 -0.783,-1.918l-0,-32.408c-0,-0.756 0.261,-1.395 0.783,-1.917c0.522,-0.522 1.161,-0.784 1.918,-0.784l24.306,0Z" style="fill-rule:nonzero;"/><path d="M316.279,320.403c1.476,0 2.872,0.289 4.186,0.865c1.314,0.576 2.458,1.35 3.43,2.322c0.972,0.973 1.746,2.116 2.323,3.43c0.576,1.314 0.864,2.71 0.864,4.186l-0,24.306c-0,0.756 -0.261,1.396 -0.783,1.918c-0.523,0.522 -1.162,0.783 -1.918,0.783l-13.503,-0c-1.477,-0 -2.872,-0.288 -4.186,-0.864c-1.315,-0.576 -2.458,-1.351 -3.43,-2.323c-0.972,-0.972 -1.747,-2.115 -2.323,-3.43c-0.576,-1.314 -0.864,-2.709 -0.864,-4.186c0,-1.44 0.27,-2.817 0.81,-4.132c0.54,-1.314 1.333,-2.475 2.377,-3.484c1.008,-1.044 2.169,-1.836 3.484,-2.376c1.314,-0.54 2.691,-0.81 4.132,-0.81l10.802,-0l0,-5.402c0,-1.512 -0.522,-2.791 -1.566,-3.835c-1.044,-1.044 -2.323,-1.566 -3.835,-1.566l-10.803,-0c-0.756,-0 -1.395,-0.261 -1.917,-0.783c-0.522,-0.522 -0.783,-1.162 -0.783,-1.918c-0,-0.756 0.261,-1.395 0.783,-1.917c0.522,-0.522 1.161,-0.784 1.917,-0.784l10.803,0Zm5.401,21.606l-10.802,-0c-1.513,-0 -2.791,0.522 -3.835,1.566c-1.045,1.045 -1.567,2.323 -1.567,3.835c0,1.513 0.522,2.791 1.567,3.835c1.044,1.044 2.322,1.567 3.835,1.567l10.802,-0l0,-10.803Z" style="fill-rule:nonzero;"/><path d="M356.789,320.403c0.756,0 1.396,0.262 1.918,0.784c0.522,0.522 0.783,1.161 0.783,1.917c-0,0.756 -0.261,1.396 -0.783,1.918c-0.522,0.522 -1.162,0.783 -1.918,0.783l-8.102,-0l0,29.707c0,0.756 -0.261,1.396 -0.783,1.918c-0.522,0.522 -1.161,0.783 -1.918,0.783c-0.756,-0 -1.395,-0.261 -1.917,-0.783c-0.522,-0.522 -0.783,-1.162 -0.783,-1.918l-0,-29.707l-2.701,-0c-0.756,-0 -1.395,-0.261 -1.917,-0.783c-0.522,-0.522 -0.784,-1.162 -0.784,-1.918c0,-0.756 0.262,-1.395 0.784,-1.917c0.522,-0.522 1.161,-0.784 1.917,-0.784l2.701,0l-0,-13.503c-0,-0.756 0.261,-1.395 0.783,-1.917c0.522,-0.522 1.161,-0.784 1.917,-0.784c0.757,0 1.396,0.262 1.918,0.784c0.522,0.522 0.783,1.161 0.783,1.917l0,13.503l8.102,0Z" style="fill-rule:nonzero;"/><path d="M375.694,342.009l-0,5.401c-0,1.513 0.522,2.791 1.566,3.835c1.045,1.044 2.323,1.567 3.835,1.567l13.504,-0c0.756,-0 1.395,0.261 1.917,0.783c0.522,0.522 0.783,1.161 0.783,1.917c0,0.756 -0.261,1.396 -0.783,1.918c-0.522,0.522 -1.161,0.783 -1.917,0.783l-13.504,-0c-1.476,-0 -2.871,-0.288 -4.186,-0.864c-1.314,-0.576 -2.457,-1.351 -3.43,-2.323c-0.972,-0.972 -1.746,-2.115 -2.322,-3.43c-0.576,-1.314 -0.864,-2.709 -0.864,-4.186l-0,-13.503c-0,-1.837 0.342,-3.574 1.026,-5.212c0.684,-1.639 1.656,-3.088 2.917,-4.349c1.26,-1.26 2.709,-2.232 4.348,-2.916c1.638,-0.684 3.375,-1.027 5.212,-1.027c1.836,0 3.574,0.343 5.212,1.027c1.639,0.684 3.088,1.656 4.348,2.916c1.261,1.261 2.233,2.71 2.917,4.349c0.684,1.638 1.026,3.375 1.026,5.212l0,5.401c0,0.756 -0.261,1.396 -0.783,1.918c-0.522,0.522 -1.161,0.783 -1.917,0.783l-18.905,-0Zm-0,-5.401l16.204,-0l-0,-2.701c-0,-1.116 -0.216,-2.17 -0.648,-3.16c-0.432,-0.99 -1.008,-1.845 -1.729,-2.566c-0.72,-0.72 -1.575,-1.296 -2.565,-1.728c-0.991,-0.432 -2.044,-0.648 -3.16,-0.648c-1.116,-0 -2.17,0.216 -3.16,0.648c-0.99,0.432 -1.845,1.008 -2.565,1.728c-0.721,0.721 -1.297,1.576 -1.729,2.566c-0.432,0.99 -0.648,2.044 -0.648,3.16l-0,2.701Z" style="fill-rule:nonzero;"/><path d="M432.408,304.199c0.756,0 1.395,0.262 1.918,0.784c0.522,0.522 0.783,1.161 0.783,1.917l-0,48.612c-0,0.756 -0.261,1.396 -0.783,1.918c-0.523,0.522 -1.162,0.783 -1.918,0.783l-13.503,-0c-1.477,-0 -2.872,-0.288 -4.186,-0.864c-1.315,-0.576 -2.458,-1.351 -3.43,-2.323c-0.972,-0.972 -1.747,-2.115 -2.323,-3.43c-0.576,-1.314 -0.864,-2.709 -0.864,-4.186l0,-16.204c0,-1.476 0.288,-2.872 0.864,-4.186c0.576,-1.314 1.351,-2.457 2.323,-3.43c0.972,-0.972 2.115,-1.746 3.43,-2.322c1.314,-0.576 2.709,-0.865 4.186,-0.865l10.802,0l0,-13.503c0,-0.756 0.261,-1.395 0.784,-1.917c0.522,-0.522 1.161,-0.784 1.917,-0.784Zm-2.701,21.606l-10.802,-0c-1.513,-0 -2.791,0.522 -3.835,1.566c-1.044,1.044 -1.567,2.323 -1.567,3.835l0,16.204c0,1.513 0.523,2.791 1.567,3.835c1.044,1.044 2.322,1.567 3.835,1.567l10.802,-0l0,-27.007Z" style="fill-rule:nonzero;"/><path d="M502.626,352.812c0.756,-0 1.395,0.261 1.917,0.783c0.522,0.522 0.783,1.161 0.783,1.917c0,0.756 -0.261,1.396 -0.783,1.918c-0.522,0.522 -1.161,0.783 -1.917,0.783l-13.504,-0c-1.476,-0 -2.871,-0.288 -4.186,-0.864c-1.314,-0.576 -2.457,-1.351 -3.43,-2.323c-0.972,-0.972 -1.746,-2.115 -2.322,-3.43c-0.576,-1.314 -0.864,-2.709 -0.864,-4.186l-0,-32.408c-0,-1.476 0.288,-2.872 0.864,-4.186c0.576,-1.314 1.35,-2.458 2.322,-3.43c0.973,-0.972 2.116,-1.746 3.43,-2.322c1.315,-0.576 2.71,-0.865 4.186,-0.865l13.504,0c0.756,0 1.395,0.262 1.917,0.784c0.522,0.522 0.783,1.161 0.783,1.917c0,0.756 -0.261,1.395 -0.783,1.918c-0.522,0.522 -1.161,0.783 -1.917,0.783l-13.504,-0c-1.512,-0 -2.79,0.522 -3.835,1.566c-0.504,0.504 -0.891,1.089 -1.161,1.756c-0.27,0.666 -0.405,1.359 -0.405,2.079l-0,32.408c-0,1.513 0.522,2.791 1.566,3.835c1.045,1.044 2.323,1.567 3.835,1.567l13.504,-0Z" style="fill-rule:nonzero;"/><path d="M543.136,344.71c-0,1.836 -0.342,3.573 -1.026,5.212c-0.685,1.638 -1.657,3.088 -2.917,4.348c-1.261,1.26 -2.71,2.233 -4.348,2.917c-1.639,0.684 -3.376,1.026 -5.213,1.026c-1.836,-0 -3.573,-0.342 -5.212,-1.026c-1.638,-0.684 -3.088,-1.657 -4.348,-2.917c-1.26,-1.26 -2.233,-2.71 -2.917,-4.348c-0.684,-1.639 -1.026,-3.376 -1.026,-5.212l0,-10.803c0,-1.837 0.342,-3.574 1.026,-5.212c0.684,-1.639 1.657,-3.088 2.917,-4.349c1.26,-1.26 2.71,-2.232 4.348,-2.916c1.639,-0.684 3.376,-1.027 5.212,-1.027c1.837,0 3.574,0.343 5.213,1.027c1.638,0.684 3.087,1.656 4.348,2.916c1.26,1.261 2.232,2.71 2.917,4.349c0.684,1.638 1.026,3.375 1.026,5.212l-0,10.803Zm-5.402,-10.803c0,-1.116 -0.216,-2.17 -0.648,-3.16c-0.432,-0.99 -1.008,-1.845 -1.728,-2.566c-0.72,-0.72 -1.576,-1.296 -2.566,-1.728c-0.99,-0.432 -2.043,-0.648 -3.16,-0.648c-1.116,-0 -2.169,0.216 -3.159,0.648c-0.991,0.432 -1.846,1.008 -2.566,1.728c-0.72,0.721 -1.296,1.576 -1.728,2.566c-0.433,0.99 -0.649,2.044 -0.649,3.16l0,10.803c0,1.116 0.216,2.169 0.649,3.159c0.432,0.991 1.008,1.846 1.728,2.566c0.72,0.72 1.575,1.296 2.566,1.728c0.99,0.433 2.043,0.649 3.159,0.649c1.117,-0 2.17,-0.216 3.16,-0.649c0.99,-0.432 1.846,-1.008 2.566,-1.728c0.72,-0.72 1.296,-1.575 1.728,-2.566c0.432,-0.99 0.648,-2.043 0.648,-3.159l0,-10.803Z" style="fill-rule:nonzero;"/><path d="M570.143,320.403c1.476,0 2.871,0.289 4.186,0.865c1.314,0.576 2.457,1.35 3.429,2.322c0.973,0.973 1.747,2.116 2.323,3.43c0.576,1.314 0.864,2.71 0.864,4.186l0,24.306c0,0.756 -0.261,1.396 -0.783,1.918c-0.522,0.522 -1.161,0.783 -1.917,0.783c-0.757,-0 -1.396,-0.261 -1.918,-0.783c-0.522,-0.522 -0.783,-1.162 -0.783,-1.918l-0,-24.306c-0,-1.512 -0.522,-2.791 -1.567,-3.835c-1.044,-1.044 -2.322,-1.566 -3.834,-1.566l-10.803,-0l-0,29.707c-0,0.756 -0.261,1.396 -0.783,1.918c-0.522,0.522 -1.162,0.783 -1.918,0.783c-0.756,-0 -1.395,-0.261 -1.917,-0.783c-0.522,-0.522 -0.784,-1.162 -0.784,-1.918l0,-32.408c0,-0.756 0.262,-1.395 0.784,-1.917c0.522,-0.522 1.161,-0.784 1.917,-0.784l13.504,0Z" style="fill-rule:nonzero;"/><path d="M610.653,320.403c0.756,0 1.395,0.262 1.917,0.784c0.522,0.522 0.783,1.161 0.783,1.917c0,0.756 -0.261,1.396 -0.783,1.918c-0.522,0.522 -1.161,0.783 -1.917,0.783l-8.102,-0l-0,29.707c-0,0.756 -0.261,1.396 -0.784,1.918c-0.522,0.522 -1.161,0.783 -1.917,0.783c-0.756,-0 -1.395,-0.261 -1.918,-0.783c-0.522,-0.522 -0.783,-1.162 -0.783,-1.918l0,-29.707l-2.7,-0c-0.757,-0 -1.396,-0.261 -1.918,-0.783c-0.522,-0.522 -0.783,-1.162 -0.783,-1.918c-0,-0.756 0.261,-1.395 0.783,-1.917c0.522,-0.522 1.161,-0.784 1.918,-0.784l2.7,0l0,-13.503c0,-0.756 0.261,-1.395 0.783,-1.917c0.523,-0.522 1.162,-0.784 1.918,-0.784c0.756,0 1.395,0.262 1.917,0.784c0.523,0.522 0.784,1.161 0.784,1.917l-0,13.503l8.102,0Z" style="fill-rule:nonzero;"/><path d="M643.061,320.403c0.756,0 1.395,0.262 1.917,0.784c0.522,0.522 0.783,1.161 0.783,1.917l0,5.402c0,0.756 -0.261,1.395 -0.783,1.917c-0.522,0.522 -1.161,0.783 -1.917,0.783c-0.756,0 -1.396,-0.261 -1.918,-0.783c-0.522,-0.522 -0.783,-1.161 -0.783,-1.917l0,-2.701l-10.803,-0l0,29.707c0,0.756 -0.261,1.396 -0.783,1.918c-0.522,0.522 -1.161,0.783 -1.917,0.783c-0.756,-0 -1.396,-0.261 -1.918,-0.783c-0.522,-0.522 -0.783,-1.162 -0.783,-1.918l0,-32.408c0,-0.756 0.261,-1.395 0.783,-1.917c0.522,-0.522 1.162,-0.784 1.918,-0.784l16.204,0Z" style="fill-rule:nonzero;"/><path d="M683.571,344.71c-0,1.836 -0.342,3.573 -1.026,5.212c-0.685,1.638 -1.657,3.088 -2.917,4.348c-1.26,1.26 -2.71,2.233 -4.348,2.917c-1.639,0.684 -3.376,1.026 -5.212,1.026c-1.837,-0 -3.574,-0.342 -5.213,-1.026c-1.638,-0.684 -3.088,-1.657 -4.348,-2.917c-1.26,-1.26 -2.232,-2.71 -2.917,-4.348c-0.684,-1.639 -1.026,-3.376 -1.026,-5.212l0,-10.803c0,-1.837 0.342,-3.574 1.026,-5.212c0.685,-1.639 1.657,-3.088 2.917,-4.349c1.26,-1.26 2.71,-2.232 4.348,-2.916c1.639,-0.684 3.376,-1.027 5.213,-1.027c1.836,0 3.573,0.343 5.212,1.027c1.638,0.684 3.088,1.656 4.348,2.916c1.26,1.261 2.232,2.71 2.917,4.349c0.684,1.638 1.026,3.375 1.026,5.212l-0,10.803Zm-5.401,-10.803c-0,-1.116 -0.217,-2.17 -0.649,-3.16c-0.432,-0.99 -1.008,-1.845 -1.728,-2.566c-0.72,-0.72 -1.575,-1.296 -2.566,-1.728c-0.99,-0.432 -2.043,-0.648 -3.159,-0.648c-1.117,-0 -2.17,0.216 -3.16,0.648c-0.991,0.432 -1.846,1.008 -2.566,1.728c-0.72,0.721 -1.296,1.576 -1.728,2.566c-0.432,0.99 -0.649,2.044 -0.649,3.16l0,10.803c0,1.116 0.217,2.169 0.649,3.159c0.432,0.991 1.008,1.846 1.728,2.566c0.72,0.72 1.575,1.296 2.566,1.728c0.99,0.433 2.043,0.649 3.16,0.649c1.116,-0 2.169,-0.216 3.159,-0.649c0.991,-0.432 1.846,-1.008 2.566,-1.728c0.72,-0.72 1.296,-1.575 1.728,-2.566c0.432,-0.99 0.649,-2.043 0.649,-3.159l-0,-10.803Z" style="fill-rule:nonzero;"/><path d="M702.476,352.812c0.756,-0 1.395,0.261 1.917,0.783c0.522,0.522 0.783,1.161 0.783,1.917c0,0.756 -0.261,1.396 -0.783,1.918c-0.522,0.522 -1.161,0.783 -1.917,0.783c-1.117,-0 -2.17,-0.216 -3.16,-0.648c-0.99,-0.432 -1.846,-1.008 -2.566,-1.729c-0.72,-0.72 -1.296,-1.575 -1.728,-2.565c-0.432,-0.991 -0.648,-2.044 -0.648,-3.16l-0,-43.211c-0,-0.756 0.261,-1.395 0.783,-1.917c0.522,-0.522 1.161,-0.784 1.917,-0.784c0.756,0 1.396,0.262 1.918,0.784c0.522,0.522 0.783,1.161 0.783,1.917l-0,43.211c-0,0.756 0.261,1.395 0.783,1.917c0.522,0.523 1.161,0.784 1.918,0.784Z" style="fill-rule:nonzero;"/><path d="M295.7,382.627c0.72,0.288 1.215,0.774 1.485,1.458c0.27,0.685 0.261,1.369 -0.027,2.053c-0.288,0.72 -0.774,1.215 -1.458,1.485c-0.684,0.27 -1.368,0.261 -2.053,-0.027c-4.033,-1.656 -8.192,-2.484 -12.477,-2.484c-1.116,-0 -2.169,0.216 -3.159,0.648c-0.991,0.432 -1.846,1.008 -2.566,1.728c-0.72,0.72 -1.296,1.576 -1.729,2.566c-0.432,0.99 -0.648,2.043 -0.648,3.16c0,1.548 0.405,2.961 1.216,4.24c0.81,1.278 1.899,2.277 3.267,2.998l15.124,7.723c2.233,1.117 4.015,2.737 5.348,4.862c1.368,2.196 2.052,4.591 2.052,7.183c0,1.837 -0.342,3.574 -1.026,5.213c-0.684,1.638 -1.657,3.088 -2.917,4.348c-1.26,1.26 -2.71,2.232 -4.348,2.917c-1.638,0.684 -3.376,1.026 -5.212,1.026c-3.205,-0 -6.311,-0.504 -9.318,-1.513c-3.006,-1.008 -5.842,-2.484 -8.507,-4.429c-0.612,-0.432 -0.972,-1.017 -1.08,-1.755c-0.108,-0.738 0.072,-1.413 0.54,-2.026c0.432,-0.612 1.017,-0.972 1.755,-1.08c0.739,-0.108 1.414,0.072 2.026,0.54c4.393,3.241 9.254,4.861 14.584,4.861c1.116,0 2.169,-0.216 3.159,-0.648c0.991,-0.432 1.846,-1.008 2.566,-1.728c0.72,-0.72 1.296,-1.576 1.729,-2.566c0.432,-0.99 0.648,-2.043 0.648,-3.16c-0,-1.548 -0.396,-2.961 -1.189,-4.24c-0.792,-1.278 -1.872,-2.277 -3.24,-2.997l-0.054,-0l-15.124,-7.724l0.054,-0c-2.233,-1.081 -4.033,-2.701 -5.402,-4.862c-1.368,-2.196 -2.052,-4.591 -2.052,-7.183c-0,-1.837 0.342,-3.574 1.026,-5.213c0.684,-1.638 1.657,-3.087 2.917,-4.348c1.26,-1.26 2.71,-2.232 4.348,-2.916c1.638,-0.685 3.376,-1.027 5.212,-1.027c5.078,0 9.921,0.973 14.53,2.917Z" style="fill-rule:nonzero;"/><path d="M337.722,399.479l-16.204,48.612c-0.18,0.541 -0.504,0.982 -0.972,1.324c-0.468,0.342 -0.99,0.513 -1.566,0.513l-5.402,-0c-0.756,-0 -1.395,-0.261 -1.917,-0.783c-0.522,-0.522 -0.783,-1.162 -0.783,-1.918c-0,-0.756 0.261,-1.395 0.783,-1.917c0.522,-0.522 1.161,-0.783 1.917,-0.783l3.457,-0l4.483,-13.504l-10.478,-31.544c-0.252,-0.72 -0.216,-1.413 0.108,-2.079c0.324,-0.666 0.846,-1.108 1.566,-1.324c0.72,-0.252 1.414,-0.216 2.08,0.108c0.666,0.325 1.107,0.847 1.323,1.567l8.264,24.738l8.264,-24.738c0.216,-0.72 0.657,-1.242 1.323,-1.567c0.667,-0.324 1.36,-0.36 2.08,-0.108c0.72,0.216 1.242,0.658 1.566,1.324c0.324,0.666 0.36,1.359 0.108,2.079Z" style="fill-rule:nonzero;"/><path d="M371.427,398.831c0.684,0.288 1.152,0.783 1.404,1.485c0.252,0.703 0.216,1.396 -0.108,2.08c-0.288,0.684 -0.783,1.152 -1.485,1.404c-0.702,0.252 -1.396,0.234 -2.08,-0.054c-3.457,-1.62 -7.129,-2.43 -11.018,-2.43c-1.117,-0 -2.071,0.396 -2.863,1.188c-0.792,0.792 -1.188,1.746 -1.188,2.863c-0,0.792 0.207,1.512 0.621,2.16c0.414,0.648 0.981,1.153 1.701,1.513l13.936,6.697c1.62,0.793 2.898,1.945 3.835,3.457c1.008,1.585 1.512,3.277 1.512,5.077c-0,1.297 -0.252,2.521 -0.756,3.673c-0.504,1.153 -1.18,2.161 -2.026,3.025c-0.846,0.864 -1.845,1.54 -2.998,2.026c-1.152,0.486 -2.376,0.729 -3.672,0.729c-5.438,-0 -10.713,-0.954 -15.826,-2.863c-0.721,-0.288 -1.234,-0.765 -1.54,-1.431c-0.306,-0.666 -0.315,-1.36 -0.027,-2.08c0.288,-0.684 0.765,-1.179 1.432,-1.485c0.666,-0.306 1.359,-0.333 2.079,-0.081c4.465,1.692 9.092,2.538 13.882,2.538c1.116,0 2.07,-0.396 2.862,-1.188c0.792,-0.792 1.189,-1.746 1.189,-2.863c-0,-0.792 -0.207,-1.512 -0.622,-2.16c-0.414,-0.648 -0.981,-1.152 -1.701,-1.512l-13.935,-6.698c-1.621,-0.792 -2.899,-1.945 -3.835,-3.457c-1.009,-1.584 -1.513,-3.277 -1.513,-5.077c0,-1.297 0.243,-2.521 0.729,-3.673c0.486,-1.152 1.162,-2.152 2.026,-2.998c0.864,-0.846 1.872,-1.521 3.025,-2.025c1.152,-0.505 2.376,-0.757 3.673,-0.757c4.645,0 9.074,0.973 13.287,2.917Z" style="fill-rule:nonzero;"/><path d="M405.401,395.914c0.757,0 1.396,0.261 1.918,0.784c0.522,0.522 0.783,1.161 0.783,1.917c0,0.756 -0.261,1.395 -0.783,1.918c-0.522,0.522 -1.161,0.783 -1.918,0.783l-8.102,-0l0,29.707c0,0.756 -0.261,1.395 -0.783,1.918c-0.522,0.522 -1.161,0.783 -1.917,0.783c-0.757,-0 -1.396,-0.261 -1.918,-0.783c-0.522,-0.523 -0.783,-1.162 -0.783,-1.918l-0,-29.707l-2.701,-0c-0.756,-0 -1.395,-0.261 -1.917,-0.783c-0.522,-0.523 -0.783,-1.162 -0.783,-1.918c-0,-0.756 0.261,-1.395 0.783,-1.917c0.522,-0.523 1.161,-0.784 1.917,-0.784l2.701,0l-0,-13.503c-0,-0.756 0.261,-1.395 0.783,-1.917c0.522,-0.523 1.161,-0.784 1.918,-0.784c0.756,0 1.395,0.261 1.917,0.784c0.522,0.522 0.783,1.161 0.783,1.917l0,13.503l8.102,0Z" style="fill-rule:nonzero;"/><path d="M424.306,417.52l0,5.401c0,1.513 0.522,2.791 1.566,3.835c1.045,1.044 2.323,1.566 3.835,1.566l13.504,0c0.756,0 1.395,0.262 1.917,0.784c0.522,0.522 0.783,1.161 0.783,1.917c0,0.756 -0.261,1.395 -0.783,1.918c-0.522,0.522 -1.161,0.783 -1.917,0.783l-13.504,-0c-1.476,-0 -2.871,-0.288 -4.186,-0.864c-1.314,-0.577 -2.457,-1.351 -3.429,-2.323c-0.973,-0.972 -1.747,-2.115 -2.323,-3.43c-0.576,-1.314 -0.864,-2.71 -0.864,-4.186l-0,-13.503c-0,-1.837 0.342,-3.574 1.026,-5.213c0.684,-1.638 1.656,-3.087 2.917,-4.348c1.26,-1.26 2.709,-2.232 4.348,-2.916c1.638,-0.685 3.376,-1.027 5.212,-1.027c1.837,0 3.574,0.342 5.212,1.027c1.639,0.684 3.088,1.656 4.348,2.916c1.261,1.261 2.233,2.71 2.917,4.348c0.684,1.639 1.026,3.376 1.026,5.213l0,5.401c0,0.756 -0.261,1.395 -0.783,1.918c-0.522,0.522 -1.161,0.783 -1.917,0.783l-18.905,-0Zm0,-5.402l16.204,0l0,-2.7c0,-1.117 -0.216,-2.17 -0.648,-3.16c-0.432,-0.99 -1.008,-1.846 -1.728,-2.566c-0.721,-0.72 -1.576,-1.296 -2.566,-1.728c-0.99,-0.432 -2.044,-0.648 -3.16,-0.648c-1.116,-0 -2.169,0.216 -3.16,0.648c-0.99,0.432 -1.845,1.008 -2.565,1.728c-0.721,0.72 -1.297,1.576 -1.729,2.566c-0.432,0.99 -0.648,2.043 -0.648,3.16l0,2.7Z" style="fill-rule:nonzero;"/><path d="M483.721,395.914c1.476,0 2.872,0.288 4.186,0.865c1.314,0.576 2.458,1.35 3.43,2.322c0.972,0.972 1.746,2.116 2.322,3.43c0.577,1.314 0.865,2.71 0.865,4.186l-0,24.306c-0,0.756 -0.261,1.395 -0.784,1.918c-0.522,0.522 -1.161,0.783 -1.917,0.783c-0.756,-0 -1.395,-0.261 -1.918,-0.783c-0.522,-0.523 -0.783,-1.162 -0.783,-1.918l0,-24.306c0,-1.512 -0.522,-2.791 -1.566,-3.835c-1.044,-1.044 -2.323,-1.566 -3.835,-1.566l-5.401,-0l-0,29.707c-0,0.756 -0.261,1.395 -0.784,1.918c-0.522,0.522 -1.161,0.783 -1.917,0.783c-0.756,-0 -1.395,-0.261 -1.918,-0.783c-0.522,-0.523 -0.783,-1.162 -0.783,-1.918l0,-29.707l-10.802,-0l-0,29.707c-0,0.756 -0.262,1.395 -0.784,1.918c-0.522,0.522 -1.161,0.783 -1.917,0.783c-0.756,-0 -1.395,-0.261 -1.918,-0.783c-0.522,-0.523 -0.783,-1.162 -0.783,-1.918l0,-32.408c0,-0.756 0.261,-1.395 0.783,-1.917c0.523,-0.523 1.162,-0.784 1.918,-0.784l24.306,0Z" style="fill-rule:nonzero;"/><path d="M528.066,398.831c0.684,0.288 1.152,0.783 1.404,1.485c0.252,0.703 0.216,1.396 -0.108,2.08c-0.288,0.684 -0.783,1.152 -1.485,1.404c-0.702,0.252 -1.395,0.234 -2.08,-0.054c-3.456,-1.62 -7.129,-2.43 -11.018,-2.43c-1.117,-0 -2.071,0.396 -2.863,1.188c-0.792,0.792 -1.188,1.746 -1.188,2.863c-0,0.792 0.207,1.512 0.621,2.16c0.414,0.648 0.981,1.153 1.701,1.513l13.936,6.697c1.62,0.793 2.898,1.945 3.835,3.457c1.008,1.585 1.512,3.277 1.512,5.077c0,1.297 -0.252,2.521 -0.756,3.673c-0.504,1.153 -1.179,2.161 -2.026,3.025c-0.846,0.864 -1.845,1.54 -2.997,2.026c-1.153,0.486 -2.377,0.729 -3.673,0.729c-5.438,-0 -10.713,-0.954 -15.826,-2.863c-0.72,-0.288 -1.234,-0.765 -1.54,-1.431c-0.306,-0.666 -0.315,-1.36 -0.027,-2.08c0.288,-0.684 0.766,-1.179 1.432,-1.485c0.666,-0.306 1.359,-0.333 2.079,-0.081c4.465,1.692 9.093,2.538 13.882,2.538c1.116,0 2.07,-0.396 2.862,-1.188c0.793,-0.792 1.189,-1.746 1.189,-2.863c-0,-0.792 -0.207,-1.512 -0.621,-2.16c-0.415,-0.648 -0.982,-1.152 -1.702,-1.512l-13.935,-6.698c-1.621,-0.792 -2.899,-1.945 -3.835,-3.457c-1.009,-1.584 -1.513,-3.277 -1.513,-5.077c0,-1.297 0.243,-2.521 0.73,-3.673c0.486,-1.152 1.161,-2.152 2.025,-2.998c0.864,-0.846 1.872,-1.521 3.025,-2.025c1.152,-0.505 2.376,-0.757 3.673,-0.757c4.645,0 9.074,0.973 13.287,2.917Z" style="fill-rule:nonzero;"/></g></g><g id="Logo"><g><path d="M323.093,215.155c17.082,-0 70.977,0.001 70.977,0.001l-0,51.776c-0,5.963 3.531,11.359 8.995,13.746c5.463,2.387 11.822,1.311 16.197,-2.74c21.457,-19.871 50.56,-46.824 61.906,-57.332c3.066,-2.839 4.808,-6.827 4.808,-11.005c0,-13.836 0,-46.334 0,-65.56c0,-3.978 -1.58,-7.793 -4.393,-10.606c-2.813,-2.813 -6.629,-4.394 -10.607,-4.394c-17.081,0 -70.976,0.009 -70.976,0.009l-0,-51.786c0,-5.962 -3.531,-11.359 -8.995,-13.746c-5.464,-2.387 -11.823,-1.311 -16.197,2.741c-21.457,19.871 -50.56,46.823 -61.907,57.331c-3.065,2.839 -4.808,6.828 -4.808,11.006c0,13.835 0,46.333 0,65.559c0,3.978 1.581,7.793 4.394,10.606c2.813,2.813 6.628,4.394 10.606,4.394Z" style="fill:#fff;"/><path d="M400.448,263.151c0,3.975 2.355,7.572 5.997,9.164c3.643,1.591 7.882,0.874 10.798,-1.827c19.462,-18.024 50.132,-46.427 60.046,-55.608c2.043,-1.893 3.205,-4.552 3.205,-7.337l0,-61.502c0,-5.522 -4.477,-10 -10,-10c-15.379,0 -44.666,0 -60.046,0c-5.522,0 -10,4.478 -10,10c0,23.723 0,83.896 0,117.11Z" style="fill:#4d4d4d;"/><path d="M393.621,81.045c0,-3.975 -2.354,-7.572 -5.997,-9.163c-3.642,-1.592 -7.881,-0.875 -10.798,1.826c-19.462,18.024 -50.131,46.427 -60.045,55.608c-2.044,1.893 -3.206,4.552 -3.206,7.337l0,61.502c0,5.523 4.478,10 10,10c15.38,-0 44.667,-0 60.046,-0c5.523,-0 10,-4.477 10,-10c0,-23.723 0,-83.896 0,-117.11Z" style="fill:#800000;"/></g></g></svg>